<svg width="101" height="101" viewBox="0 0 101 101" fill="none" xmlns="http://www.w3.org/2000/svg">
<path d="M91.5242 0.891113H9.65471C4.64807 0.891113 0.589478 4.94971 0.589478 9.95635V91.8259C0.589478 96.8325 4.64807 100.891 9.65471 100.891H91.5242C96.5309 100.891 100.589 96.8325 100.589 91.8259V9.95635C100.589 4.94971 96.5309 0.891113 91.5242 0.891113Z" fill="#DC395F"/>
<path d="M34.0094 32.3541C37.3336 32.3541 40.1184 29.7486 40.1184 26.3338C40.1184 22.9212 37.3336 20.3162 34.0094 20.3162C30.6852 20.3162 27.9012 22.9212 27.9012 26.3338C27.9012 29.7482 30.6852 32.3541 34.0094 32.3541ZM21.343 64.5885C20.984 66.1159 20.8039 67.7651 20.8039 69.1104C20.8039 74.4116 23.6785 77.9307 29.7875 77.9307C34.8539 77.9307 38.9614 74.9221 41.9188 70.0639L40.1129 77.3112H50.1735L55.9235 54.249C57.361 48.41 60.1457 45.3791 64.3684 45.3791C67.6922 45.3791 69.7582 47.4463 69.7582 50.8588C69.7582 51.8475 69.6684 52.9244 69.309 54.0928L66.3442 64.6932C65.895 66.2206 65.716 67.7487 65.716 69.185C65.716 74.2174 68.6797 77.8983 74.8785 77.8983C80.1789 77.8983 84.4008 74.4862 86.7367 66.3108L82.7844 64.785C80.8078 70.262 79.1008 71.2522 77.7532 71.2522C76.4055 71.2522 75.6867 70.3545 75.6867 68.5588C75.6867 67.7502 75.8672 66.853 76.136 65.7725L79.0114 55.4451C79.7297 53.0201 79.9996 50.8697 79.9996 48.894C79.9996 41.1682 75.3278 37.1361 69.6684 37.1361C64.3684 37.1361 58.9778 41.917 56.2832 46.9486L58.259 37.9174H42.8981L40.7418 45.8721H47.9289L43.5032 63.5909C40.0278 71.3167 33.6438 71.4421 32.8426 71.2628C31.527 70.9659 30.6856 70.4663 30.6856 68.7569C30.6856 67.7706 30.8653 66.3538 31.3145 64.6455L38.0528 37.9174H20.984L18.8278 45.8721H25.9242L21.3434 64.5885" fill="white"/>
</svg>
