<svg width="101" height="101" viewBox="0 0 101 101" fill="none" xmlns="http://www.w3.org/2000/svg">
<path fill-rule="evenodd" clip-rule="evenodd" d="M95.2067 29.0815L95.6148 30.0339C98.6079 36.6325 100.104 43.5713 100.104 50.7822C100.104 78.3332 77.6554 100.782 50.1045 100.782C22.5535 100.782 0.104492 78.3332 0.104492 50.7822C0.104492 23.2312 22.5535 0.782227 50.1045 0.782227C58.1998 0.782227 65.8867 2.68699 72.9617 6.22441L73.9139 6.7006L73.0976 7.38085C71.057 9.01351 69.4923 11.0543 68.472 13.4353L68.1998 14.1156L67.5876 13.8434C62.0773 11.2584 56.227 9.89788 50.1045 9.89788C27.5195 9.89788 9.22015 28.1972 9.22015 50.7822C9.22015 73.3672 27.5195 91.6666 50.1045 91.6666C72.6895 91.6666 90.9889 73.2991 90.9889 50.7822C90.9889 45.4082 89.9686 40.1019 87.8595 35.136L87.5876 34.4557L88.2676 34.1835C90.6486 33.2991 92.8254 31.8026 94.5264 29.8979L95.2067 29.0815ZM82.8254 30.034C88.5739 30.034 93.2339 25.3741 93.2339 19.6259C93.2339 13.8776 88.5739 9.21766 82.8254 9.21766C77.0773 9.21766 72.4173 13.8776 72.4173 19.6259C72.4173 25.3741 77.0773 30.034 82.8254 30.034ZM50.1042 27.9933C37.5192 27.9933 27.3151 38.1972 27.3151 50.7825C27.3151 63.3675 37.5192 73.5716 50.1042 73.5716C62.6892 73.5716 72.8932 63.3675 72.8932 50.7825C72.8932 38.1972 62.6892 27.9933 50.1042 27.9933Z" fill="#3880FF"/>
</svg>
