<svg width="79" height="101" viewBox="0 0 79 101" fill="none" xmlns="http://www.w3.org/2000/svg">
<path d="M35.3844 0.395752H51.7257V75.2937C43.3554 76.877 37.1934 77.4999 30.5263 77.4999C10.5675 77.4791 0.177979 68.5625 0.177979 51.4374C0.177979 34.9375 11.1984 24.229 28.2759 24.229C30.9259 24.229 32.9447 24.4376 35.3844 25.0624V0.395752ZM35.957 38.5598C34.0431 37.9348 32.466 37.7265 30.4468 37.7265C22.1817 37.7265 17.4076 42.768 17.4076 51.6034C17.4076 60.2056 21.9716 64.9554 30.3419 64.9554C32.1503 64.9554 33.6226 64.8536 35.957 64.5411V38.5598Z" fill="#2BA977"/>
<path d="M78.4486 26.2399V63.7402C78.4486 76.6546 77.4812 82.8651 74.6419 88.2195C71.9919 93.3671 68.5008 96.6131 61.2871 100.198L46.1235 93.0527C53.3373 89.7003 56.8283 86.738 59.0579 82.2173C61.392 77.5944 62.1281 72.24 62.1281 58.1567V26.2402H78.4486V26.2399ZM60.4813 0.395752H76.8227V17H60.4813V0.395752Z" fill="#2BA977"/>
</svg>
