<svg width="101" height="101" viewBox="0 0 101 101" fill="none" xmlns="http://www.w3.org/2000/svg">
<path d="M22.7029 0.594238H78.0719C80.7662 0.594238 83.3824 1.02393 85.9204 1.92236C89.5909 3.25049 92.9099 5.59424 95.4089 8.64111C97.947 11.688 99.626 15.438 100.212 19.3442C100.446 20.7896 100.485 22.2349 100.485 23.6802V77.7036C100.485 79.4224 100.407 81.1802 100.056 82.8599C99.2746 86.7271 97.4394 90.3599 94.7841 93.2896C92.168 96.2192 88.7318 98.4067 85.0223 99.5786C82.7576 100.282 80.4148 100.594 78.0329 100.594C76.9786 100.594 22.5467 100.594 21.7268 100.555C17.7439 100.36 13.8002 99.0708 10.4811 96.8442C7.24022 94.6567 4.58501 91.6099 2.86693 88.0942C1.38314 85.0864 0.641238 81.7271 0.641238 78.3677V22.8208C0.563143 19.5005 1.26599 16.2192 2.71074 13.2505C4.38977 9.73486 7.00594 6.64893 10.2469 4.46143C13.5659 2.1958 17.4706 0.867676 21.4534 0.672363C21.8439 0.594238 22.2734 0.594238 22.7029 0.594238Z" fill="url(#paint0_linear_25_436)"/>
<path d="M84.8269 82.3911C84.4755 81.8442 84.085 81.2974 83.6555 80.7896C82.6793 79.6177 81.547 78.6021 80.2975 77.7427C78.7356 76.688 76.9004 76.0239 75.0261 75.9458C73.6985 75.8677 72.3709 76.1021 71.1214 76.5708C69.8719 77.0005 68.6614 77.6255 67.49 78.2505C66.1233 78.9536 64.7567 79.6567 63.3119 80.2427C61.5939 80.9458 59.7977 81.4927 57.9625 81.8833C55.6587 82.313 53.3158 82.4692 51.0121 82.4302C46.834 82.3521 42.656 81.7271 38.6731 80.5552C35.1589 79.5005 31.8008 78.0552 28.638 76.2192C25.8657 74.6177 23.2886 72.7817 20.8676 70.7114C18.8762 68.9927 17.041 67.1567 15.3229 65.2036C14.1515 63.8364 13.0191 62.3911 11.9649 60.9067C11.5353 60.3208 11.1449 59.6958 10.7934 59.0708L0.484985 47.938V22.7427C0.484985 10.5161 10.3639 0.594238 22.5857 0.594238H42.3045L56.9082 15.438C89.864 37.8599 79.2041 62.5864 79.2041 62.5864C79.2041 62.5864 88.5755 73.1333 84.8269 82.3911Z" fill="url(#paint1_linear_25_436)"/>
<path d="M56.9862 15.438C89.942 37.8599 79.2821 62.5864 79.2821 62.5864C79.2821 62.5864 88.6535 73.1724 84.8659 82.4302C84.8659 82.4302 81.0002 75.9458 74.5184 75.9458C68.2708 75.9458 64.6004 82.4302 52.0272 82.4302C24.0304 82.4302 10.7935 59.0317 10.7935 59.0317C36.0179 75.6333 53.2377 63.8755 53.2377 63.8755C41.875 57.2739 17.7048 25.7114 17.7048 25.7114C38.7512 43.6411 47.8492 48.3677 47.8492 48.3677C42.4216 43.8755 27.1933 21.9224 27.1933 21.9224C39.376 34.2661 63.5852 51.4927 63.5852 51.4927C70.4575 32.4302 56.9862 15.438 56.9862 15.438Z" fill="white"/>
<defs>
<linearGradient id="paint0_linear_25_436" x1="59.9505" y1="-2.97412" x2="41.0502" y2="104.172" gradientUnits="userSpaceOnUse">
<stop stop-color="#FAAE42"/>
<stop offset="1" stop-color="#EF3E31"/>
</linearGradient>
<linearGradient id="paint1_linear_25_436" x1="51.4853" y1="2.20986" x2="37.6525" y2="80.6287" gradientUnits="userSpaceOnUse">
<stop stop-color="#E39F3A"/>
<stop offset="1" stop-color="#D33929"/>
</linearGradient>
</defs>
</svg>
