<svg width="101" height="80" viewBox="0 0 101 80" fill="none" xmlns="http://www.w3.org/2000/svg">
<path fill-rule="evenodd" clip-rule="evenodd" d="M27.7948 79.0471L15.3585 74.5842V56.3562L27.7948 60.5935V79.0471ZM30.0761 79.0471L42.5124 74.585V56.3562L30.0761 60.5935V79.0471ZM16.6365 54.9928L29.223 51.4493L40.8942 55.2127L29.223 59.1753L16.6365 54.9928ZM12.9884 53.5812L0.552124 49.1199V30.8903L12.9884 35.1275V53.5812ZM15.2697 53.5812L27.7069 49.1199V30.8903L15.2697 35.1275V53.5812ZM1.83011 29.526L14.4175 25.9833L26.0886 29.7467L14.4175 33.7093L1.83011 29.5268V29.526ZM42.0079 53.5812L29.5707 49.1199V30.8903L42.0079 35.1275V53.5812ZM44.2892 53.5812L56.7263 49.1199V30.8903L44.2892 35.1275V53.5812ZM30.8504 29.526L43.4369 25.9833L55.1072 29.7467L43.4369 33.7093L30.8504 29.5268V29.526ZM56.8143 28.1136L44.3771 23.6539V5.42431L56.8143 9.66075V28.1136ZM59.0956 28.1136L71.5319 23.6539V5.42431L59.0947 9.66075V28.1136H59.0956ZM45.6559 4.06084L58.2433 0.517334L69.9136 4.27993L58.2433 8.24335L45.6559 4.06084ZM85.8345 28.1136L73.3974 23.6539V5.42431L85.8345 9.66075V28.1136ZM88.115 28.1136L100.552 23.6539V5.42431L88.115 9.66075V28.1136ZM74.6754 4.06084L87.2627 0.517334L98.9331 4.27993L87.2627 8.24252L74.6754 4.06001" fill="#FF9900"/>
</svg>
