<svg width="101" height="99" viewBox="0 0 101 99" fill="none" xmlns="http://www.w3.org/2000/svg">
<path d="M4.99506 5.01099H96.6616V94.1775H4.99506V5.01099Z" fill="#2E001E"/>
<path d="M0.828369 0.844238V98.3442H100.828V0.844238H0.828369ZM4.99503 5.0109H96.6617V94.1775H4.99503V5.0109Z" fill="#FF2BC2"/>
<path d="M73.4534 41.8025C72.8284 41.5109 72.0367 41.3859 71.0367 41.3859C65.7867 41.3859 62.2867 45.4275 62.2867 52.1358C62.2867 59.8025 65.87 62.8858 70.5367 62.8858C71.5367 62.8858 72.62 62.7608 73.4117 62.4275V41.8025H73.4534ZM54.7867 52.4692C54.7867 42.7609 61.0367 35.1775 71.2867 35.1775C72.1617 35.1775 72.62 35.1775 73.4534 35.2609V24.4276C73.4534 24.1776 73.6617 24.0109 73.87 24.0109H80.5783C80.9117 24.0109 80.995 24.1359 80.995 24.3442V62.4275C80.995 63.5525 80.995 64.9691 81.2033 66.5108C81.2033 66.8025 81.2034 66.8441 80.9534 66.9691C77.4534 68.6358 73.7867 69.3858 70.2867 69.3858C61.245 69.3858 54.7867 63.8025 54.7867 52.4692ZM40.5784 45.7192L52.245 68.3441C52.4534 68.6775 52.3284 69.0108 51.995 69.0108H44.745C44.2867 69.0108 44.0784 68.8858 43.87 68.4691C41.2034 62.9691 38.495 57.2608 35.7034 51.3442H35.62C33.12 56.9275 30.37 63.0108 27.7034 68.5108C27.495 68.8441 27.2867 68.9691 26.9534 68.9691H20.0367C19.62 68.9691 19.5784 68.6358 19.7867 68.3858L31.2034 46.4275L20.1617 24.5942C19.9117 24.2609 20.1617 23.9692 20.4534 23.9692H27.62C28.0367 23.9692 28.245 24.0526 28.37 24.4276C30.995 29.9692 33.6617 35.4275 36.1617 41.0109H36.245C38.6617 35.5109 41.3284 29.9692 43.87 24.5109C44.0784 24.1776 44.2034 23.9692 44.62 23.9692H51.3284C51.6617 23.9692 51.7867 24.2192 51.5784 24.5942L40.5784 45.7192Z" fill="#FF2BC2"/>
</svg>
